<mxfile host="app.diagrams.net" agent="Mozilla/5.0 (Windows NT 10.0; Win64; x64) AppleWebKit/537.36 (KHTML, like Gecko) Chrome/138.0.0.0 Safari/537.36 Edg/138.0.0.0" version="27.2.0">
  <diagram name="第 1 页" id="qpb8Ep5ppw-hFlBWJVvO">
    <mxGraphModel dx="2470" dy="932" grid="1" gridSize="10" guides="1" tooltips="1" connect="1" arrows="1" fold="1" page="1" pageScale="1" pageWidth="827" pageHeight="1169" math="0" shadow="0">
      <root>
        <mxCell id="0" />
        <mxCell id="1" parent="0" />
        <mxCell id="B19EFK0onm4h__Q6_6Yf-21" value="" style="rounded=0;whiteSpace=wrap;html=1;fillColor=#f8cecc;strokeColor=#b85450;" vertex="1" parent="1">
          <mxGeometry x="140" y="290" width="1110" height="290" as="geometry" />
        </mxCell>
        <mxCell id="B19EFK0onm4h__Q6_6Yf-18" value="" style="edgeStyle=orthogonalEdgeStyle;rounded=0;orthogonalLoop=1;jettySize=auto;html=1;" edge="1" parent="1" source="B19EFK0onm4h__Q6_6Yf-8" target="B19EFK0onm4h__Q6_6Yf-17">
          <mxGeometry relative="1" as="geometry" />
        </mxCell>
        <mxCell id="B19EFK0onm4h__Q6_6Yf-7" value="" style="edgeStyle=orthogonalEdgeStyle;rounded=0;orthogonalLoop=1;jettySize=auto;html=1;" edge="1" parent="1" source="B19EFK0onm4h__Q6_6Yf-1" target="B19EFK0onm4h__Q6_6Yf-6">
          <mxGeometry relative="1" as="geometry" />
        </mxCell>
        <mxCell id="B19EFK0onm4h__Q6_6Yf-1" value="启动fake wmiprvse.exe" style="rounded=1;whiteSpace=wrap;html=1;" vertex="1" parent="1">
          <mxGeometry x="340" y="340" width="120" height="60" as="geometry" />
        </mxCell>
        <mxCell id="B19EFK0onm4h__Q6_6Yf-5" value="" style="edgeStyle=orthogonalEdgeStyle;rounded=0;orthogonalLoop=1;jettySize=auto;html=1;" edge="1" parent="1" source="B19EFK0onm4h__Q6_6Yf-2" target="B19EFK0onm4h__Q6_6Yf-1">
          <mxGeometry relative="1" as="geometry" />
        </mxCell>
        <mxCell id="B19EFK0onm4h__Q6_6Yf-2" value="启动" style="ellipse;whiteSpace=wrap;html=1;aspect=fixed;" vertex="1" parent="1">
          <mxGeometry x="200" y="330" width="80" height="80" as="geometry" />
        </mxCell>
        <mxCell id="B19EFK0onm4h__Q6_6Yf-28" value="" style="edgeStyle=orthogonalEdgeStyle;rounded=0;orthogonalLoop=1;jettySize=auto;html=1;" edge="1" parent="1" source="B19EFK0onm4h__Q6_6Yf-6" target="B19EFK0onm4h__Q6_6Yf-27">
          <mxGeometry relative="1" as="geometry" />
        </mxCell>
        <mxCell id="B19EFK0onm4h__Q6_6Yf-6" value="找到模拟器进程" style="rounded=1;whiteSpace=wrap;html=1;" vertex="1" parent="1">
          <mxGeometry x="520" y="340" width="120" height="60" as="geometry" />
        </mxCell>
        <mxCell id="B19EFK0onm4h__Q6_6Yf-15" value="" style="edgeStyle=orthogonalEdgeStyle;rounded=0;orthogonalLoop=1;jettySize=auto;html=1;" edge="1" parent="1" source="B19EFK0onm4h__Q6_6Yf-8" target="B19EFK0onm4h__Q6_6Yf-14">
          <mxGeometry relative="1" as="geometry" />
        </mxCell>
        <mxCell id="B19EFK0onm4h__Q6_6Yf-8" value="尝试注入测试.dll" style="rhombus;whiteSpace=wrap;html=1;" vertex="1" parent="1">
          <mxGeometry x="1000" y="470" width="80" height="80" as="geometry" />
        </mxCell>
        <mxCell id="B19EFK0onm4h__Q6_6Yf-11" value="" style="edgeStyle=orthogonalEdgeStyle;rounded=0;orthogonalLoop=1;jettySize=auto;html=1;" edge="1" parent="1" source="B19EFK0onm4h__Q6_6Yf-9" target="B19EFK0onm4h__Q6_6Yf-8">
          <mxGeometry relative="1" as="geometry" />
        </mxCell>
        <mxCell id="B19EFK0onm4h__Q6_6Yf-9" value="patch LdrInitlizeThunk&amp;nbsp;" style="whiteSpace=wrap;html=1;rounded=1;" vertex="1" parent="1">
          <mxGeometry x="980" y="340" width="120" height="60" as="geometry" />
        </mxCell>
        <mxCell id="B19EFK0onm4h__Q6_6Yf-14" value="结束" style="rounded=1;whiteSpace=wrap;html=1;" vertex="1" parent="1">
          <mxGeometry x="1140" y="485" width="70" height="50" as="geometry" />
        </mxCell>
        <mxCell id="B19EFK0onm4h__Q6_6Yf-16" value="失败" style="text;html=1;align=center;verticalAlign=middle;resizable=0;points=[];autosize=1;strokeColor=none;fillColor=none;" vertex="1" parent="1">
          <mxGeometry x="1090" y="470" width="50" height="30" as="geometry" />
        </mxCell>
        <mxCell id="B19EFK0onm4h__Q6_6Yf-20" value="" style="edgeStyle=orthogonalEdgeStyle;rounded=0;orthogonalLoop=1;jettySize=auto;html=1;" edge="1" parent="1" source="B19EFK0onm4h__Q6_6Yf-17" target="B19EFK0onm4h__Q6_6Yf-19">
          <mxGeometry relative="1" as="geometry" />
        </mxCell>
        <mxCell id="B19EFK0onm4h__Q6_6Yf-17" value="在测试.dll中写入shellcode并调用" style="rounded=1;whiteSpace=wrap;html=1;" vertex="1" parent="1">
          <mxGeometry x="820" y="480" width="120" height="60" as="geometry" />
        </mxCell>
        <mxCell id="B19EFK0onm4h__Q6_6Yf-19" value="读取游戏数据" style="rounded=1;whiteSpace=wrap;html=1;" vertex="1" parent="1">
          <mxGeometry x="600" y="480" width="120" height="60" as="geometry" />
        </mxCell>
        <mxCell id="B19EFK0onm4h__Q6_6Yf-23" value="" style="rounded=0;whiteSpace=wrap;html=1;" vertex="1" parent="1">
          <mxGeometry x="-60" y="210" width="120" height="60" as="geometry" />
        </mxCell>
        <mxCell id="B19EFK0onm4h__Q6_6Yf-24" value="" style="rounded=0;whiteSpace=wrap;html=1;" vertex="1" parent="1">
          <mxGeometry x="1280" y="580" width="120" height="60" as="geometry" />
        </mxCell>
        <mxCell id="B19EFK0onm4h__Q6_6Yf-29" value="" style="edgeStyle=orthogonalEdgeStyle;rounded=0;orthogonalLoop=1;jettySize=auto;html=1;" edge="1" parent="1" source="B19EFK0onm4h__Q6_6Yf-27" target="B19EFK0onm4h__Q6_6Yf-9">
          <mxGeometry relative="1" as="geometry" />
        </mxCell>
        <mxCell id="B19EFK0onm4h__Q6_6Yf-27" value="找到壳加载进程" style="rounded=1;whiteSpace=wrap;html=1;" vertex="1" parent="1">
          <mxGeometry x="750" y="340" width="120" height="60" as="geometry" />
        </mxCell>
        <mxCell id="B19EFK0onm4h__Q6_6Yf-30" value="成功" style="text;html=1;align=center;verticalAlign=middle;resizable=0;points=[];autosize=1;strokeColor=none;fillColor=none;" vertex="1" parent="1">
          <mxGeometry x="950" y="480" width="50" height="30" as="geometry" />
        </mxCell>
      </root>
    </mxGraphModel>
  </diagram>
</mxfile>
